<svg width="20" height="20" viewBox="0 0 20 20" xmlns="http://www.w3.org/2000/svg">
  <path d="M14,4 C12.8954305,4 12,3.1045695 12,2 C12,0.8954305 12.8954305,0 14,0 C15.1045695,0 16,0.8954305 16,2 C16,3.1045695 15.1045695,4 14,4 Z M10,8 C8.8954305,8 8,7.1045695 8,6 C8,4.8954305 8.8954305,4 10,4 C11.1045695,4 12,4.8954305 12,6 C12,7.1045695 11.1045695,8 10,8 Z M6,12 C4.8954305,12 4,11.1045695 4,10 C4,8.8954305 4.8954305,8 6,8 C7.1045695,8 8,8.8954305 8,10 C8,11.1045695 7.1045695,12 6,12 Z M10,16 C8.8954305,16 8,15.1045695 8,14 C8,12.8954305 8.8954305,12 10,12 C11.1045695,12 12,12.8954305 12,14 C12,15.1045695 11.1045695,16 10,16 Z M14,20 C12.8954305,20 12,19.1045695 12,18 C12,16.8954305 12.8954305,16 14,16 C15.1045695,16 16,16.8954305 16,18 C16,19.1045695 15.1045695,20 14,20 Z" fill="#000" fill-rule="nonzero"/>
</svg>
